/* XPM */
static char *_f88b3b9056c402495ef81ce6b83d4a1y66ZH93VkeuLtcV6[] = {
/* columns rows colors chars-per-pixel */
"38 38 6 1 ",
"  c #141B1B",
". c #2D697B",
"X c #548789",
"o c #79B8CE",
"O c #F2EAF1",
"+ c #E3F1F5",
/* pixels */
"                                      ",
"                                      ",
"                                      ",
"                                      ",
"              ooooooooooo             ",
"           oooooooooooooooo           ",
"         ooooooooooooooooooo          ",
"        oooooooooooooooooooooo        ",
"       oooooooooooooooooooooooo       ",
"      oooooooOOOOOOOOOOooooooooo      ",
"      oooooOOOOOOOOOOOOOOoooooooX     ",
"     XoooOOOOOOOOOOOOOOOOOOoooooX     ",
"    XXooOOOOOOOOOOOOOOOOOOOOooooXX    ",
"    XXXOOOOOOOO.......OOOOOOOooXXX    ",
"    XXXOOOOOO..XXXXXXX..OOOOOOXXXX.   ",
"   XXXOOOOOO.XXXXXXXXXXX.OOOOOXXXX.   ",
"   XXXOOOOO.XXXXXXXXXXXXX.OOOOOXXX.   ",
"   XXXOOOOXX  XXXXXXXXX  XXOOOOXXX.   ",
"   XXOOOOOX    XXXXXXX    XOOOOOX..   ",
"   XXOOOOXX      XXX      XXOOOO...   ",
"   XXOOOOXX   ++     ++   XXOOOO...   ",
"   XXOOOOXX   ++     ++   XXOOOO...   ",
"    XXOOOXoo             ooXOOOo...   ",
"    XXOOOXoooo         ooooXOOOo..    ",
"     XOOOOooooooo   oooooooOOOOo..    ",
"     XXOOOoooooooooooooooooOOOo..     ",
"      XOOOOoooooooooooooooOOOOo.      ",
"       XOOOOOooooooooooooOOOOo        ",
"         oOOOOOOooooooOOOOOOo         ",
"          ooOOOOOOOOOOOOOOoo ....     ",
"        ..  ooOOOOOOOOOOoo  .......   ",
"      ......  oooOOOOooo  ..........  ",
"     .....XXXXXXXXXXXXXXXXXXX........ ",
"    ....XXXXXXOOOOOOXXXXXXXXXXX.......",
"   ....XXXXooOOOOOOOOOXooooXXXXX......",
"   ...XXXoooOOOOOXXOOOOXoooooXXXX.....",
"  ...XXXooooOOOOOOOXOOOXooooooXXXX....",
"  ...XXXooooOOOOOOOOXXXoooooooXXXX...."
};
