/* XPM */
static char *_79ffb2182c74e328f031b7db69a45b5MdEB8E2lDRORXqL6[] = {
/* columns rows colors chars-per-pixel */
"45 46 5 1 ",
"  c None",
". c #141B1B",
"X c #A16240",
"o c #E67C44",
"O c #FFAD5D",
/* pixels */
"          ..    ..        ..      ..         ",
"       ...OO....OO........OO......OO...      ",
"     ..OOOoOOOOOOoOOoooOOOoOOOOOOOOoOOO..    ",
"    .oOOOOOoOOOOoOOOOoOOOOOoOOOOOOoOOOOOo.   ",
"   .oOOOOOOOOOOOOOOoOOOOOOOOOOOOOOOoOOOOOo.  ",
"  .ooOOOOOOOOOOOOOOOoOOOOOOOOOOOOOOOoOOOOOo. ",
" .oOOOOOOOOOOOOOOOOOOOOOOOOOOOOOOOOOOOOOOOOo.",
" .ooOOOOOOOOOOOOOOOOOOOOOOOOOOOOOOOOOOOOOOoo.",
".ooOOOOOOoOOOOOOOOOOOOOOOoOOOOOOOOOOOOOOOoOoo",
".oOOOOOOoOOOOOOOOOOOOOOOoOOOOOOOOOOOOOOOoOOOo",
".oooOOOOOOOOOOOOOOOOOOOOOOOOOOOOOOOOOOOOOOooo",
".ooOOOOOOOOOOOOOOOOOOOOOOOOOOOOOOOOOOOOOOOOoo",
".oOOOOOOOOOOOOOOOOOOOOOOOOOOOOOOOOOOOOOOOOOOo",
".ooOOOOOOOOOOOOOOOOOOOOOOOOOOOOOOOOOOOOOOOOoo",
".oOOOOOOOOOOOOOOOOOOOOOOOOOOOOOOOOOOOOOOOOOOo",
".ooOOOOOOOOOOOOOOOOOOOOOOOOOOOOOOOOOOOOOOOOoo",
".oooOOOOOOOOOOOOOOOOOOOOOOOOOOOOOOOOOOOOOOooo",
".ooOOOOOOOOOOOOOOOOOOOOOOOOOOOOOOOOOOOOOOOOoo",
".oOOOOOOOOOOOOOOOOOOOOOOOOOOOOOOOOOOOOOOOOOOo",
".oooOOOOOOOOOOOOOOOOOOOOOOOOOOOOOOOOOOOOOOooo",
".oooOOOOOOOOOOOOOOOoOOOOOOOOOOOOOOOoOOOOOOOoo",
".oOOoOOOOOOOOOOOOOOOoOOOOOOOOOOOOOOOoOOOOOOOo",
".ooOOOOOOOOOOOOOOOOOOOOOOOOOOOOOOOOOOOOOOOOoo",
".oOOOOOOOOOOOOOOOOOOOOOOOOOOOOOOOOOOOOOOOOOOo",
".oOOOOOOOoOOOOOOOOOOOOOOOoOOOOOOOOOOOOOOOoOOo",
".ooOOOOOoOOOOOOOOOOOOOOOoOOOOOOOOOOOOOOOoOOoo",
".oooOOOOOOOOOOOOOOOOOOOOOOOOOOOOOOOOOOOOOOooo",
".ooOOOOOOOOOOOOOOOOOOOOOOOOOOOOOOOOOOOOOOOOoo",
".ooOOOOOOOOOOOOOOOOOOOOOOOOOOOOOOOOOOOOOOOOoo",
".oooOOOOOOOOOOOOOOOOOOOOOOOOOOOOOOOOOOOOOOooo",
".ooOOOOOOOOOOOOOOOOOOOOOOOOOOOOOOOOOOOOOOOOoo",
".oOOOOOOOOOOOOOOOOOOOOOOOOOOOOOOOOOOOOOOOOOOo",
".ooOOOOOOOOOOOOOOOOOOOOOOOOOOOOOOOOOOOOOOOOoo",
".oOOOOOOOOOOOOOOOOOOOOOOOOOOOOOOOOOOOOOOOOOOo",
".ooOOOOOOOOOOOOOOOOOOOOOOOOOOOOOOOOOOOOOOOOoo",
"XoOOOoOOOOOOOOOOOOOOOOOOOOOOOOOOOOOOOOOOoOOOo",
"XoOooOOOOOOOOOOOOOOoOOOOOOOOOOOOOOOoOOOOOoOOo",
"XooooOOOOOOOOOOOOOOOoOOOOOOOOOOOOOOOoOOOOOooo",
"XoooOOoOOOOOOOOOOOOOOOOOOOOOOOOOOOOOOOOoOOooo",
"XoooooOOOOOooOOOOooOOOOOOOOooOOOOooOOOOOooooo",
"XoooooooOoooOOOOOOooOOooOoooOOOOOOooOOooooooo",
" XOooooooOoooOooooooOooooOoooooOooooOoooooooX",
" XOoOoOoooooooooOoooooooOoooooooooooooOoooOoX",
"  XoOoOoOoOoOoOoOoOoOoOoOoOoOoOoOoOoOoOoOoOX ",
"   XXoOoOoOoOoOoOoOoOoOoOoOoOoOoOoOoOoOoOXX  ",
"     XXXXXXXXXXXXXXXXXXXXXXXXXXXXXXXXXXXX    "
};
